0
SECTION
2
HEADER
9
$INSUNITS
70
4
9
$ACADVER
1
AC1014
9
$HANDSEED
5
FFFF
0
ENDSEC
0
SECTION
2
TABLES
0
TABLE
2
VPORT
5
8
100
AcDbSymbolTable
0
ENDTAB
0
TABLE
2
LTYPE
5
5
100
AcDbSymbolTable
0
LTYPE
5
14
100
AcDbSymbolTableRecord
100
AcDbLinetypeTableRecord
2
BYBLOCK
70
0
0
LTYPE
5
15
100
AcDbSymbolTableRecord
100
AcDbLinetypeTableRecord
2
BYLAYER
70
0
0
LTYPE
5
16
100
AcDbSymbolTableRecord
100
AcDbLinetypeTableRecord
2
DASHED
70
0
3
Dashed __ __ __ __ __ __ __ __ __ __ __ __ __ _
72
65
73
2
40
0.75
49
0.5
74
0
49
-0.25
74
0
0
ENDTAB
0
TABLE
2
LAYER
5
2
100
AcDbSymbolTable
70
2
0
LAYER
5
50
100
AcDbSymbolTableRecord
100
AcDbLayerTableRecord
2
0
70
0
62
7
6
CONTINUOUS
0
ENDTAB
0
TABLE
2
STYLE
5
3
100
AcDbSymbolTable
70
1
0
STYLE
5
11
100
AcDbSymbolTableRecord
100
AcDbTextStyleTableRecord
2
STANDARD
70
0
0
ENDTAB
0
TABLE
2
VIEW
5
6
100
AcDbSymbolTable
70
0
0
ENDTAB
0
TABLE
2
UCS
5
7
100
AcDbSymbolTable
70
0
0
ENDTAB
0
TABLE
2
APPID
5
9
100
AcDbSymbolTable
70
2
0
APPID
5
12
100
AcDbSymbolTableRecord
100
AcDbRegAppTableRecord
2
ACAD
70
0
0
ENDTAB
0
TABLE
2
DIMSTYLE
5
A
100
AcDbSymbolTable
70
1
0
ENDTAB
0
TABLE
2
BLOCK_RECORD
5
1
100
AcDbSymbolTable
70
1
0
BLOCK_RECORD
5
1F
100
AcDbSymbolTableRecord
100
AcDbBlockTableRecord
2
*MODEL_SPACE
0
BLOCK_RECORD
5
1B
100
AcDbSymbolTableRecord
100
AcDbBlockTableRecord
2
*PAPER_SPACE
0
ENDTAB
0
ENDSEC
0
SECTION
2
BLOCKS
0
BLOCK
5
20
100
AcDbEntity
100
AcDbBlockBegin
2
*MODEL_SPACE
0
ENDBLK
5
21
100
AcDbEntity
100
AcDbBlockEnd
0
BLOCK
5
1C
100
AcDbEntity
100
AcDbBlockBegin
2
*PAPER_SPACE
0
ENDBLK
5
1D
100
AcDbEntity
100
AcDbBlockEnd
0
ENDSEC
0
SECTION
2
ENTITIES
0
SPLINE
5
100
100
AcDbEntity
8
0
100
AcDbSpline
70
0
71
3
72
14
73
10
74
0
42
0.000000001
43
0.0000000001
44
0.0000000001
40
6.5835864425144486
40
6.5835864425144486
40
6.5835864425144486
40
6.5835864425144486
40
7.2243763195860513
40
7.2243763195860513
40
7.2243763195860513
40
7.5475590101151671
40
7.5475590101151671
40
7.5475590101151671
40
7.6533522343870413
40
7.6533522343870413
40
7.6533522343870413
40
7.6533522343870413
10
-487.74587053100078
20
34.569218042292022
30
0
10
-487.74587053100078
20
36.705184299197342
30
0
10
-487.24832668284319
20
39.062794630231963
30
0
10
-486.2477405972831
20
41.102466795730741
30
0
10
-485.74309451155665
20
42.131176458336071
30
0
10
-485.12845498315022
20
43.067766463694888
30
0
10
-484.41595040136099
20
43.898666900369378
30
0
10
-484.18271341427931
20
44.170660539944528
30
0
10
-483.93261001032607
20
44.438463333591969
30
0
10
-483.66695799324674
20
44.697082665352355
30
0
0
LINE
5
101
100
AcDbEntity
8
0
100
AcDbLine
10
-487.74587053100078
20
34.569218042292022
30
0
11
-487.74587053100095
21
-1.3161249867721381e-09
31
5.9965218062923648e-31
0
LINE
5
102
100
AcDbEntity
8
0
100
AcDbLine
10
-487.74587053100095
20
-1.3161249867721381e-09
30
5.9965218062923648e-31
11
-1.0560097297727822
21
-2.2400747923256858e-10
31
5.3721427645550904e-27
0
LINE
5
103
100
AcDbEntity
8
0
100
AcDbLine
10
-1.0560097297727822
20
-2.2400747923256858e-10
30
5.3721427645550904e-27
11
-1.0560097297727649
21
27.524682121713575
31
0
0
SPLINE
5
104
100
AcDbEntity
8
0
100
AcDbSpline
70
0
71
3
72
17
73
13
74
0
42
0.000000001
43
0.0000000001
44
0.0000000001
40
5.7086726125209362
40
5.7086726125209362
40
5.7086726125209362
40
5.7086726125209362
40
6.2893979352101734
40
6.2893979352101734
40
6.2893979352101734
40
6.663714817993994
40
6.663714817993994
40
6.663714817993994
40
6.9768736633284307
40
6.9768736633284307
40
6.9768736633284307
40
7.8762462421840285
40
7.8762462421840285
40
7.8762462421840285
40
7.8762462421840285
10
-11.443697119226373
20
46.809166097275408
30
0
10
-9.6873805896835279
20
45.942767896489975
30
0
10
-8.0371586756454363
20
44.560846116241791
30
0
10
-6.6703858652626149
20
42.9700877650832
30
0
10
-5.7894080296707005
20
41.944736047147764
30
0
10
-5.0243615899034939
20
40.834873797018567
30
0
10
-4.3941256094315406
20
39.749765893919403
30
0
10
-3.8668611952138217
20
38.841949138579366
30
0
10
-3.382009956804708
20
37.8651308683541
30
0
10
-2.9563485275809027
20
36.836608353551952
30
0
10
-1.7338755780733341
20
33.882756146181684
30
0
10
-1.0560097298026365
20
30.522590718007791
30
0
10
-1.0560097298026345
20
27.524682121822465
30
0
0
SPLINE
5
105
100
AcDbEntity
8
0
100
AcDbSpline
70
0
71
3
72
11
73
7
74
0
42
0.000000001
43
0.0000000001
44
0.0000000001
40
0.43441178586253865
40
0.43441178586253865
40
0.43441178586253865
40
0.43441178586253865
40
0.86730201731736678
40
0.86730201731736678
40
0.86730201731736678
40
1.3371540220448948
40
1.3371540220448948
40
1.3371540220448948
40
1.3371540220448948
10
-11.443697119226286
20
46.809166097275387
30
0
10
-25.439558388097687
20
53.713382289415463
30
0
10
-39.435419656969053
20
63.883805512749532
30
0
10
-53.431280925840454
20
76.393547956701767
30
0
10
-68.622160731484186
20
89.971418601097071
30
0
10
-83.813040537127947
20
106.29290003831785
30
0
10
-99.003920342771679
20
123.61415526416994
30
0
0
SPLINE
5
106
100
AcDbEntity
8
0
100
AcDbSpline
70
0
71
3
72
14
73
10
74
0
42
0.000000001
43
0.0000000001
44
0.0000000001
40
1.4364145949653346
40
1.4364145949653346
40
1.4364145949653346
40
1.4364145949653346
40
1.9367616671455936
40
1.9367616671455936
40
1.9367616671455936
40
2.220841344932889
40
2.220841344932889
40
2.220841344932889
40
2.2444014161391705
40
2.2444014161391705
40
2.2444014161391705
40
2.2444014161391705
10
-106.52529018018242
20
126.99999999796896
30
0
10
-104.83310946060192
20
126.99999999796896
30
0
10
-102.9930849617591
20
126.52659196537084
30
0
10
-101.45575765811985
20
125.63079250658217
30
0
10
-100.58291664564339
20
125.12218870781138
30
0
10
-99.82530646083643
20
124.50924464476175
30
0
10
-99.166190636459262
20
123.79457669819493
30
0
10
-99.111527043919082
20
123.73530590543317
30
0
10
-99.057419621547012
20
123.67515730446797
30
0
10
-99.003920342771693
20
123.61415526416994
30
0
0
LINE
5
107
100
AcDbEntity
8
0
100
AcDbLine
10
-106.52529018018242
20
126.99999999796896
30
0
11
-405.52605708768027
21
126.99999999857678
31
-9.8607613152626476e-31
0
SPLINE
5
108
100
AcDbEntity
8
0
100
AcDbSpline
70
0
71
3
72
14
73
10
74
0
42
0.000000001
43
0.0000000001
44
0.0000000001
40
3.5350635526308949
40
3.5350635526308949
40
3.5350635526308949
40
3.5350635526308949
40
3.8248678785213528
40
3.8248678785213528
40
3.8248678785213528
40
4.3157626580258848
40
4.3157626580258848
40
4.3157626580258848
40
4.341734909479908
40
4.341734909479908
40
4.341734909479908
40
4.341734909479908
10
-413.02132530209627
20
123.61415526416992
30
0
10
-412.37063928957309
20
124.36959346925919
30
0
10
-411.6214119913912
20
125.00959340624335
30
0
10
-410.74485216622952
20
125.54511591975708
30
0
10
-409.26006190033843
20
126.45222869450011
30
0
10
-407.46600909116302
20
126.95323804998341
30
0
10
-405.79079524234044
20
126.99657713531587
30
0
10
-405.7021630605829
20
126.9988701188004
30
0
10
-405.61389560138053
20
126.99999999796896
30
0
10
-405.52605708768027
20
126.99999999796896
30
0
0
SPLINE
5
109
100
AcDbEntity
8
0
100
AcDbSpline
70
0
71
3
72
11
73
7
74
0
42
0.000000001
43
0.0000000001
44
0.0000000001
40
-1.7085249847061112
40
-1.7085249847061112
40
-1.7085249847061112
40
-1.7085249847061112
40
-1.1149019374196287
40
-1.1149019374196287
40
-1.1149019374196287
40
-0.98017146887157058
40
-0.98017146887157058
40
-0.98017146887157058
40
-0.98017146887157058
10
-413.02132530209633
20
123.61415526416994
30
0
10
-432.21387161552184
20
101.33185249591764
30
0
10
-451.40641792894741
20
78.15222498844912
30
0
10
-470.59896424237297
20
57.954401391163373
30
0
10
-474.95496215933088
20
53.370242724560846
30
0
10
-479.31096007628878
20
48.937762946341593
30
0
10
-483.66695799324674
20
44.69708266535239
30
0
0
SPLINE
5
110
100
AcDbEntity
8
0
100
AcDbSpline
70
2
71
3
72
32
73
28
74
0
42
0.000000001
43
0.0000000001
44
0.0000000001
40
0
40
0
40
0
40
0
40
0.15139533003979908
40
0.15139533003979908
40
0.15139533003979908
40
0.30875423259221302
40
0.30875423259221302
40
0.30875423259221302
40
0.43938919665096188
40
0.43938919665096188
40
0.43938919665096188
40
0.61141425178742947
40
0.61141425178742947
40
0.61141425178742947
40
0.7813426774390273
40
0.7813426774390273
40
0.7813426774390273
40
0.95066610615634228
40
0.95066610615634228
40
0.95066610615634228
40
1.1202855745486091
40
1.1202855745486091
40
1.1202855745486091
40
1.2897344920543012
40
1.2897344920543012
40
1.2897344920543012
40
1.3561258595505703
40
1.3561258595505703
40
1.3561258595505703
40
1.3561258595505703
10
-478.88756280063694
20
4.2120808877879341
30
0
10
-478.88756280063694
20
4.7167319879205944
30
0
10
-478.68474520641655
20
5.2736780074575229
30
0
10
-478.34499878662399
20
5.6681098262349945
30
0
10
-477.99186950746719
20
6.0780786021428064
30
0
10
-477.4645017923184
20
6.3663042634289502
30
0
10
-476.91707852952754
20
6.4408869761423393
30
0
10
-476.46262303257339
20
6.5028034602857909
30
0
10
-475.99662114590529
20
6.4294563927463466
30
0
10
-475.57814080339284
20
6.2218730098427422
30
0
10
-475.02707008114834
20
5.9485193702049806
30
0
10
-474.61493509380972
20
5.4718927826904746
30
0
10
-474.42838848248152
20
4.8926614370094672
30
0
10
-474.24411548836156
20
4.3204897229440515
30
0
10
-474.29821272488886
20
3.7053317647944239
30
0
10
-474.57952369830201
20
3.1729539392597239
30
0
10
-474.85983311899764
20
2.6424715408796828
30
0
10
-475.33758753433085
20
2.2471005239233399
30
0
10
-475.91622256162032
20
2.0667733623654305
30
0
10
-476.49586925591115
20
1.8861309225575074
30
0
10
-477.11863609869488
20
1.9394919067315941
30
0
10
-477.65796635285767
20
2.2159753650829295
30
0
10
-478.19675431518408
20
2.4921808217438235
30
0
10
-478.59838764259399
20
2.9633607382738392
30
0
10
-478.78143022390788
20
3.5341006910073336
30
0
10
-478.85314769169906
20
3.7577209212484619
30
0
10
-478.88756280063694
20
3.9907763294670406
30
0
10
-478.88756280063694
20
4.2120808877879341
30
0
0
SPLINE
5
111
100
AcDbEntity
8
0
100
AcDbSpline
70
0
71
3
72
20
73
16
74
0
42
0.000000001
43
0.0000000001
44
0.0000000001
40
0
40
0
40
0
40
0
40
0.15139533006392103
40
0.15139533006392103
40
0.15139533006392103
40
0.3087542325880771
40
0.3087542325880771
40
0.3087542325880771
40
0.43938919664508469
40
0.43938919664508469
40
0.43938919664508469
40
0.6114142517872373
40
0.6114142517872373
40
0.6114142517872373
40
0.67806292977528748
40
0.67806292977528748
40
0.67806292977528748
40
0.67806292977528748
10
-14.560866187024111
20
4.2120808885149597
30
0
10
-14.560866187024107
20
4.7167319887280161
30
0
10
-14.358048592729622
20
5.2736780083582442
30
0
10
-14.018302172848625
20
5.6681098271505377
30
0
10
-13.665172893719523
20
6.0780786029348155
30
0
10
-13.137805178650993
20
6.3663042641528822
30
0
10
-12.590381915957714
20
6.440886976863462
30
0
10
-12.135926419009085
20
6.5028034610148744
30
0
10
-11.669924532349647
20
6.4294563934874382
30
0
10
-11.251444189836405
20
6.2218730105977782
30
0
10
-10.70037346756536
20
5.9485193709657036
30
0
10
-10.288238480204235
20
5.4718927834384807
30
0
10
-10.101691868869281
20
4.8926614377384192
30
0
10
-10.029417019032136
20
4.6682464337249208
30
0
10
-9.9947255176941479
20
4.4421334356260527
30
0
10
-9.9947255176941496
20
4.2120808885149419
30
0
0
SPLINE
5
112
100
AcDbEntity
8
0
100
AcDbSpline
70
0
71
3
72
20
73
16
74
0
42
0.000000001
43
0.0000000001
44
0.0000000001
40
0.67806292977528748
40
0.67806292977528748
40
0.67806292977528748
40
0.67806292977528748
40
0.78134267743888519
40
0.78134267743888519
40
0.78134267743888519
40
0.95066610615620994
40
0.95066610615620994
40
0.95066610615620994
40
1.1202855745484848
40
1.1202855745484848
40
1.1202855745484848
40
1.2897344920545115
40
1.2897344920545115
40
1.2897344920545115
40
1.3561258595505701
40
1.3561258595505701
40
1.3561258595505701
40
1.3561258595505701
10
-9.9947255176941496
20
4.2120808885149419
30
0
10
-9.9947255176941532
20
3.8555881607932685
30
0
10
-10.081850826668774
20
3.4965245684576995
30
0
10
-10.252827084688409
20
3.1729539399880702
30
0
10
-10.533136505383737
20
2.6424715416077804
30
0
10
-11.010890920716692
20
2.2471005246511222
30
0
10
-11.589525948006088
20
2.0667733630928442
30
0
10
-12.169172642296861
20
1.8861309232845525
30
0
10
-12.791939485080599
20
1.9394919074582573
30
0
10
-13.33126973924359
20
2.2159753658093262
30
0
10
-13.870057701571216
20
2.4921808224704867
30
0
10
-14.271691028981969
20
2.9633607390016792
30
0
10
-14.454733610295635
20
3.534100691736457
30
0
10
-14.526451078086426
20
3.757720921976937
30
0
10
-14.560866187024084
20
3.9907763301947696
30
0
10
-14.560866187024082
20
4.2120808885149597
30
0
0
SPLINE
5
113
100
AcDbEntity
8
0
100
AcDbSpline
70
0
71
3
72
20
73
16
74
0
42
0.000000001
43
0.0000000001
44
0.0000000001
40
0
40
0
40
0
40
0
40
0.15139533003192465
40
0.15139533003192465
40
0.15139533003192465
40
0.30875423259391882
40
0.30875423259391882
40
0.30875423259391882
40
0.43938919665282156
40
0.43938919665282156
40
0.43938919665282156
40
0.6114142517877279
40
0.6114142517877279
40
0.6114142517877279
40
0.67806292977528748
40
0.67806292977528748
40
0.67806292977528748
40
0.67806292977528748
10
-125.36610060624594
20
4.2120808868787556
30
0
10
-125.36610060624594
20
4.7167319869851942
30
0
10
-125.16328301204956
20
5.273678006491636
30
0
10
-124.82353659228588
20
5.6681098252642759
30
0
10
-124.47040731311917
20
6.0780786012133481
30
0
10
-123.94303959794259
20
6.3663042625220285
30
0
10
-123.3956163351186
20
6.4408869752355979
30
0
10
-122.94116083816412
20
6.5028034593755031
30
0
10
-122.4751589514949
20
6.4294563918321224
30
0
10
-122.05667860898389
20
6.2218730089247281
30
0
10
-121.50560788674699
20
5.9485193692847798
30
0
10
-121.09347289941525
20
5.4718927817733025
30
0
10
-120.90692628808954
20
4.8926614360973097
30
0
10
-120.83465143825347
20
4.6682464320853363
30
0
10
-120.79995993691597
20
4.4421334339881957
30
0
10
-120.79995993691597
20
4.2120808868787734
30
0
0
SPLINE
5
114
100
AcDbEntity
8
0
100
AcDbSpline
70
0
71
3
72
20
73
16
74
0
42
0.000000001
43
0.0000000001
44
0.0000000001
40
0.67806292977528748
40
0.67806292977528748
40
0.67806292977528748
40
0.67806292977528748
40
0.78134267743901875
40
0.78134267743901875
40
0.78134267743901875
40
0.95066610615624225
40
0.95066610615624225
40
0.95066610615624225
40
1.1202855745486329
40
1.1202855745486329
40
1.1202855745486329
40
1.2897344920540272
40
1.2897344920540272
40
1.2897344920540272
40
1.356125859550571
40
1.356125859550571
40
1.356125859550571
40
1.356125859550571
10
-120.79995993691597
20
4.2120808868787734
30
0
10
-120.79995993691597
20
3.8555881591566266
30
0
10
-120.88708524589083
20
3.4965245668205824
30
0
10
-121.05806150391091
20
3.1729539383506422
30
0
10
-121.33837092460641
20
2.6424715399708409
30
0
10
-121.81612533993916
20
2.2471005230146579
30
0
10
-122.39476036722826
20
2.0667733614565753
30
0
10
-122.97440706151946
20
1.886130921648248
30
0
10
-123.59717390430374
20
1.939491905822277
30
0
10
-124.13650415846686
20
2.2159753641738833
30
0
10
-124.67529212079222
20
2.4921808208343599
30
0
10
-125.07692544820158
20
2.9633607373631055
30
0
10
-125.2599680295159
20
3.5341006900953875
30
0
10
-125.33168549730775
20
3.7577209203373552
30
0
10
-125.36610060624594
20
3.9907763285569509
30
0
10
-125.36610060624594
20
4.2120808868787591
30
0
0
SPLINE
5
115
100
AcDbEntity
8
0
100
AcDbSpline
70
0
71
3
72
20
73
16
74
0
42
0.000000001
43
0.0000000001
44
0.0000000001
40
0
40
0
40
0
40
0
40
0.1513953300385712
40
0.1513953300385712
40
0.1513953300385712
40
0.30875423259268148
40
0.30875423259268148
40
0.30875423259268148
40
0.43938919665112552
40
0.43938919665112552
40
0.43938919665112552
40
0.61141425178761288
40
0.61141425178761288
40
0.61141425178761288
40
0.67806292977528493
40
0.67806292977528493
40
0.67806292977528493
40
0.67806292977528493
10
-236.1713350253824
20
4.2120808852779739
30
0
10
-236.1713350253824
20
4.7167319854065308
30
0
10
-235.96851743116571
20
5.27367800493872
30
0
10
-235.62877101137764
20
5.6681098237154259
30
0
10
-235.27564173221884
20
6.0780785996301852
30
0
10
-234.74827401706477
20
6.3663042609200442
30
0
10
-234.200850754268
20
6.4408869736330399
30
0
10
-233.74639525731499
20
6.5028034577753546
30
0
10
-233.28039337064803
20
6.4294563902354307
30
0
10
-232.86191302813671
20
6.2218730073320083
30
0
10
-232.31084230589238
20
5.948519367693816
30
0
10
-231.89870731855419
20
5.4718927801788624
30
0
10
-231.71216070722642
20
4.8926614344976427
30
0
10
-231.63988585739014
20
4.6682464304853273
30
0
10
-231.60519435605249
20
4.4421334323877844
30
0
10
-231.60519435605249
20
4.2120808852779739
30
0
0
SPLINE
5
116
100
AcDbEntity
8
0
100
AcDbSpline
70
0
71
3
72
20
73
16
74
0
42
0.000000001
43
0.0000000001
44
0.0000000001
40
0.67806292977528493
40
0.67806292977528493
40
0.67806292977528493
40
0.67806292977528493
40
0.78134267743892927
40
0.78134267743892927
40
0.78134267743892927
40
0.9506661061562629
40
0.9506661061562629
40
0.9506661061562629
40
1.1202855745485252
40
1.1202855745485252
40
1.1202855745485252
40
1.2897344920541127
40
1.2897344920541127
40
1.2897344920541127
40
1.3561258595505703
40
1.3561258595505703
40
1.3561258595505703
40
1.3561258595505703
10
-231.60519435605249
20
4.2120808852779739
30
0
10
-231.60519435605249
20
3.8555881575561268
30
0
10
-231.69231966502721
20
3.4965245652203736
30
0
10
-231.86329592304699
20
3.1729539367506643
30
0
10
-232.14360534374242
20
2.6424715383704456
30
0
10
-232.62135975907552
20
2.247100521413854
30
0
10
-233.19999478636498
20
2.0667733598557092
30
0
10
-233.77964148065576
20
1.8861309200475773
30
0
10
-234.40240832343946
20
1.9394919042214154
30
0
10
-234.94173857760234
20
2.2159753625725509
30
0
10
-235.48052653992846
20
2.4921808192330808
30
0
10
-235.8821598673384
20
2.9633607357624348
30
0
10
-236.06520244865268
20
3.5341006884954451
30
0
10
-236.13691991644433
20
3.7577209187371574
30
0
10
-236.17133502538246
20
3.9907763269564533
30
0
10
-236.17133502538246
20
4.2120808852779756
30
0
0
SPLINE
5
117
100
AcDbEntity
8
0
100
AcDbSpline
70
0
71
3
72
20
73
16
74
0
42
0.000000001
43
0.0000000001
44
0.0000000001
40
0
40
0
40
0
40
0
40
0.15139533004889558
40
0.15139533004889558
40
0.15139533004889558
40
0.30875423259070112
40
0.30875423259070112
40
0.30875423259070112
40
0.43938919664854925
40
0.43938919664854925
40
0.43938919664854925
40
0.61141425178735131
40
0.61141425178735131
40
0.61141425178735131
40
0.67806292977528615
40
0.67806292977528615
40
0.67806292977528615
40
0.67806292977528615
10
-346.97656944448465
20
4.2120808855841441
30
0
10
-346.97656944448465
20
4.7167319857471179
30
0
10
-346.77375185023635
20
5.2736780053192378
30
0
10
-346.43400543041048
20
5.6681098241023147
30
0
10
-346.08087615126396
20
6.0780785999636784
30
0
10
-345.55350843614519
20
6.3663042612241831
30
0
10
-345.00608517339094
20
6.440886973936415
30
0
10
-344.55162967643969
20
6.5028034580826528
30
0
10
-344.08562778977597
20
6.4294563905480722
30
0
10
-343.66714744726374
20
6.2218730076504851
30
0
10
-343.11607672500827
20
5.948519368015055
30
0
10
-342.7039417376605
20
5.4718927804952706
30
0
10
-342.51739512632952
20
4.8926614348064739
30
0
10
-342.44512027649256
20
4.6682464307933591
30
0
10
-342.41042877515468
20
4.4421334326948791
30
0
10
-342.41042877515468
20
4.2120808855841618
30
0
0
SPLINE
5
118
100
AcDbEntity
8
0
100
AcDbSpline
70
0
71
3
72
20
73
16
74
0
42
0.000000001
43
0.0000000001
44
0.0000000001
40
0.67806292977528615
40
0.67806292977528615
40
0.67806292977528615
40
0.67806292977528615
40
0.78134267743901853
40
0.78134267743901853
40
0.78134267743901853
40
0.9506661061564099
40
0.9506661061564099
40
0.9506661061564099
40
1.1202855745486855
40
1.1202855745486855
40
1.1202855745486855
40
1.2897344920551701
40
1.2897344920551701
40
1.2897344920551701
40
1.3561258595505714
40
1.3561258595505714
40
1.3561258595505714
40
1.3561258595505714
10
-342.41042877515468
20
4.2120808855841618
30
0
10
-342.41042877515468
20
3.8555881578620066
30
0
10
-342.49755408412966
20
3.4965245655259647
30
0
10
-342.66853034214978
20
3.1729539370560289
30
0
10
-342.94883976284552
20
2.6424715386757169
30
0
10
-343.4265941781789
20
2.2471005217192452
30
0
10
-344.00522920546871
20
2.0667733601614424
30
0
10
-344.5848758997596
20
1.8861309203536969
30
0
10
-345.2076427425435
20
1.9394919045279968
30
0
10
-345.74697299670612
20
2.2159753628795187
30
0
10
-346.28576095903486
20
2.4921808195418738
30
0
10
-346.68739428644608
20
2.9633607360755532
30
0
10
-346.87043686775837
20
3.5341006888123161
30
0
10
-346.94215433554774
20
3.7577209190507554
30
0
10
-346.97656944448465
20
3.9907763272661478
30
0
10
-346.97656944448465
20
4.2120808855841485
30
0
0
ENDSEC
0
SECTION
2
OBJECTS
0
DICTIONARY
5
C
100
AcDbDictionary
3
ACAD_GROUP
350
D
3
ACAD_MLINESTYLE
350
17
0
DICTIONARY
5
D
100
AcDbDictionary
0
DICTIONARY
5
1A
330
C
100
AcDbDictionary
0
DICTIONARY
5
17
100
AcDbDictionary
0
ENDSEC
0
EOF
