0
SECTION
2
HEADER
9
$INSUNITS
70
4
9
$ACADVER
1
AC1014
9
$HANDSEED
5
FFFF
0
ENDSEC
0
SECTION
2
TABLES
0
TABLE
2
VPORT
5
8
100
AcDbSymbolTable
0
ENDTAB
0
TABLE
2
LTYPE
5
5
100
AcDbSymbolTable
0
LTYPE
5
14
100
AcDbSymbolTableRecord
100
AcDbLinetypeTableRecord
2
BYBLOCK
70
0
0
LTYPE
5
15
100
AcDbSymbolTableRecord
100
AcDbLinetypeTableRecord
2
BYLAYER
70
0
0
LTYPE
5
16
100
AcDbSymbolTableRecord
100
AcDbLinetypeTableRecord
2
DASHED
70
0
3
Dashed __ __ __ __ __ __ __ __ __ __ __ __ __ _
72
65
73
2
40
0.75
49
0.5
74
0
49
-0.25
74
0
0
ENDTAB
0
TABLE
2
LAYER
5
2
100
AcDbSymbolTable
70
2
0
LAYER
5
50
100
AcDbSymbolTableRecord
100
AcDbLayerTableRecord
2
0
70
0
62
7
6
CONTINUOUS
0
ENDTAB
0
TABLE
2
STYLE
5
3
100
AcDbSymbolTable
70
1
0
STYLE
5
11
100
AcDbSymbolTableRecord
100
AcDbTextStyleTableRecord
2
STANDARD
70
0
0
ENDTAB
0
TABLE
2
VIEW
5
6
100
AcDbSymbolTable
70
0
0
ENDTAB
0
TABLE
2
UCS
5
7
100
AcDbSymbolTable
70
0
0
ENDTAB
0
TABLE
2
APPID
5
9
100
AcDbSymbolTable
70
2
0
APPID
5
12
100
AcDbSymbolTableRecord
100
AcDbRegAppTableRecord
2
ACAD
70
0
0
ENDTAB
0
TABLE
2
DIMSTYLE
5
A
100
AcDbSymbolTable
70
1
0
ENDTAB
0
TABLE
2
BLOCK_RECORD
5
1
100
AcDbSymbolTable
70
1
0
BLOCK_RECORD
5
1F
100
AcDbSymbolTableRecord
100
AcDbBlockTableRecord
2
*MODEL_SPACE
0
BLOCK_RECORD
5
1B
100
AcDbSymbolTableRecord
100
AcDbBlockTableRecord
2
*PAPER_SPACE
0
ENDTAB
0
ENDSEC
0
SECTION
2
BLOCKS
0
BLOCK
5
20
100
AcDbEntity
100
AcDbBlockBegin
2
*MODEL_SPACE
0
ENDBLK
5
21
100
AcDbEntity
100
AcDbBlockEnd
0
BLOCK
5
1C
100
AcDbEntity
100
AcDbBlockBegin
2
*PAPER_SPACE
0
ENDBLK
5
1D
100
AcDbEntity
100
AcDbBlockEnd
0
ENDSEC
0
SECTION
2
ENTITIES
0
SPLINE
5
100
100
AcDbEntity
8
0
100
AcDbSpline
70
0
71
3
72
20
73
16
74
0
42
0.000000001
43
0.0000000001
44
0.0000000001
40
0
40
0
40
0
40
0
40
0.151528018607653
40
0.151528018607653
40
0.151528018607653
40
0.30908536722939406
40
0.30908536722939406
40
0.30908536722939406
40
0.44031253743114362
40
0.44031253743114362
40
0.44031253743114362
40
0.61151954960983945
40
0.61151954960983945
40
0.61151954960983945
40
0.74348944481450852
40
0.74348944481450852
40
0.74348944481450852
40
0.74348944481450852
10
-9.1323417025080644
20
5.0000000000000622
30
0
10
-9.1323417025080644
20
4.4949066046412289
30
0
10
-9.3342470777257347
20
3.9374273353932931
30
0
10
-9.6723190270167283
20
3.5429038723405526
30
0
10
-10.023842926445464
20
3.1326822421837797
30
0
10
-10.549183079002301
20
2.8445179675471266
30
0
10
-11.093794642361779
20
2.7707125002848709
30
0
10
-11.547393506165925
20
2.7092410253015231
30
0
10
-12.012950756882855
20
2.784369217734981
30
0
10
-12.429668108282556
20
2.9946824453866849
30
0
10
-12.973343115115947
20
3.2690699771192389
30
0
10
-13.379431815442137
20
3.7440819335828435
30
0
10
-13.5635533602279
20
4.320660853453977
30
0
10
-13.705478043458381
20
4.7650997737079859
30
0
10
-13.704296615682384
20
5.2307817939301371
30
0
10
-13.567009684018139
20
5.6684192128038635
30
0
0
SPLINE
5
101
100
AcDbEntity
8
0
100
AcDbSpline
70
0
71
3
72
20
73
16
74
0
42
0.000000001
43
0.0000000001
44
0.0000000001
40
0.74348944481450852
40
0.74348944481450852
40
0.74348944481450852
40
0.74348944481450852
40
0.78141835163323314
40
0.78141835163323314
40
0.78141835163323314
40
0.95086774192182966
40
0.95086774192182966
40
0.95086774192182966
40
1.1205499259733585
40
1.1205499259733585
40
1.1205499259733585
40
1.2898631412408885
40
1.2898631412408885
40
1.2898631412408885
40
1.356089110138609
40
1.356089110138609
40
1.356089110138609
40
1.356089110138609
10
-13.567009684018139
20
5.6684192128038635
30
0
10
-13.527552630343539
20
5.7941987237681314
30
0
10
-13.474963687766756
20
5.9212251783601033
30
0
10
-13.412523480244683
20
6.0400278385204365
30
0
10
-13.133568562174499
20
6.570784984384006
30
0
10
-12.658071236975413
20
6.9661925129458968
30
0
10
-12.0824867651106
20
7.1460347956038994
30
0
10
-11.506111541063897
20
7.3261241500373941
30
0
10
-10.886979472844008
20
7.2719789410108371
30
0
10
-10.351276845500578
20
6.9946684861146347
30
0
10
-9.8167390873395028
20
6.7179610344264917
30
0
10
-9.4185196496524188
20
6.246730448775164
30
0
10
-9.2372567866038899
20
5.6763170751053504
30
0
10
-9.1663567761611393
20
5.4532029000906546
30
0
10
-9.1323417025080467
20
5.2207532296591497
30
0
10
-9.1323417025080467
20
5.0000000000000755
30
0
0
SPLINE
5
102
100
AcDbEntity
8
0
100
AcDbSpline
70
0
71
3
72
20
73
16
74
0
42
0.000000001
43
0.0000000001
44
0.0000000001
40
0
40
0
40
0
40
0
40
0.15152795417928763
40
0.15152795417928763
40
0.15152795417928763
40
0.3090851172698092
40
0.3090851172698092
40
0.3090851172698092
40
0.44031253947019888
40
0.44031253947019888
40
0.44031253947019888
40
0.61151926088380237
40
0.61151926088380237
40
0.61151926088380237
40
0.74348944641900983
40
0.74348944641900983
40
0.74348944641900983
40
0.74348944641900983
10
-92.936283863875801
20
5.0000000000000533
30
0
10
-92.936283863875801
20
4.4949068194024244
30
0
10
-93.138188352139764
20
3.9374274471423476
30
0
10
-93.476259647468837
20
3.542903763602081
30
0
10
-93.827782602443634
20
3.1326822128176035
30
0
10
-94.35312195996184
20
2.8445179444266877
30
0
10
-94.897732885010782
20
2.7707125099086394
30
0
10
-95.3513326223663
20
2.7092408717666228
30
0
10
-95.816890784073721
20
2.7843695922310241
30
0
10
-96.233608907799152
20
2.9946833578519305
30
0
10
-96.777282954887511
20
3.2690705985394786
30
0
10
-97.183371704841605
20
3.7440807029402778
30
0
10
-97.367494176890006
20
4.3206581999555249
30
0
10
-97.509420128142409
20
4.7650977559978713
30
0
10
-97.508238990041818
20
5.2307809703059194
30
0
10
-97.370951359128924
20
5.6684192128038102
30
0
0
SPLINE
5
103
100
AcDbEntity
8
0
100
AcDbSpline
70
0
71
3
72
20
73
16
74
0
42
0.000000001
43
0.0000000001
44
0.0000000001
40
0.74348944641900983
40
0.74348944641900983
40
0.74348944641900983
40
0.74348944641900983
40
0.78141834127016985
40
0.78141834127016985
40
0.78141834127016985
40
0.95086777327688909
40
0.95086777327688909
40
0.95086777327688909
40
1.1205496528348635
40
1.1205496528348635
40
1.1205496528348635
40
1.2898633097824146
40
1.2898633097824146
40
1.2898633097824146
40
1.3560890877980933
40
1.3560890877980933
40
1.3560890877980933
40
1.3560890877980933
10
-97.370951359128924
20
5.6684192128038102
30
0
10
-97.331494203740817
20
5.7941986440839166
30
0
10
-97.278905150286064
20
5.9212249831567032
30
0
10
-97.216464835595986
20
6.0400275370000323
30
0
10
-96.937509282050996
20
6.5707845060258174
30
0
10
-96.462011582437526
20
6.9661916410887326
30
0
10
-95.886427016766703
20
7.1460342665252874
30
0
10
-95.310052874989054
20
7.3261235967008265
30
0
10
-94.69092203092535
20
7.2719798197059138
30
0
10
-94.155219984730877
20
6.9946705809664911
30
0
10
-93.620680452803526
20
6.7179631244094029
30
0
10
-93.222460354533453
20
6.2467305031231213
30
0
10
-93.041198026053777
20
5.6763152806455208
30
0
10
-92.970298614010375
20
5.4532016075868395
30
0
10
-92.936283863875801
20
5.2207525933856447
30
0
10
-92.936283863875801
20
5.0000000000000488
30
0
0
SPLINE
5
104
100
AcDbEntity
8
0
100
AcDbSpline
70
0
71
3
72
20
73
16
74
0
42
0.000000001
43
0.0000000001
44
0.0000000001
40
0
40
0
40
0
40
0
40
0.15152795418022269
40
0.15152795418022269
40
0.15152795418022269
40
0.30908511726968896
40
0.30908511726968896
40
0.30908511726968896
40
0.44031253947011295
40
0.44031253947011295
40
0.44031253947011295
40
0.61151926088382857
40
0.61151926088382857
40
0.61151926088382857
40
0.74348944641901182
40
0.74348944641901182
40
0.74348944641901182
40
0.74348944641901182
10
-115.37198350745092
20
5.0000000000000799
30
0
10
-115.37198350745092
20
4.4949068193993336
30
0
10
-115.57388799571777
20
3.9374274471356374
30
0
10
-115.91195929105027
20
3.5429037635948069
30
0
10
-116.26348224602408
20
3.1326822128150189
30
0
10
-116.78882160353942
20
2.8445179444266877
30
0
10
-117.33343252858472
20
2.7707125099088348
30
0
10
-117.78703226594035
20
2.7092408717665517
30
0
10
-118.25259042764783
20
2.7843695922307443
30
0
10
-118.66930855137349
20
2.9946833578515575
30
0
10
-119.21298259846237
20
3.2690705985390878
30
0
10
-119.61907134841678
20
3.744080702940189
30
0
10
-119.80319382046524
20
4.3206581999558047
30
0
10
-119.94511977171754
20
4.7650977559980667
30
0
10
-119.94393863361694
20
5.230780970306026
30
0
10
-119.80665100270406
20
5.6684192128038546
30
0
0
SPLINE
5
105
100
AcDbEntity
8
0
100
AcDbSpline
70
0
71
3
72
20
73
16
74
0
42
0.000000001
43
0.0000000001
44
0.0000000001
40
0.74348944641901182
40
0.74348944641901182
40
0.74348944641901182
40
0.74348944641901182
40
0.7814183412702238
40
0.7814183412702238
40
0.7814183412702238
40
0.95086777327684413
40
0.95086777327684413
40
0.95086777327684413
40
1.1205496528347756
40
1.1205496528347756
40
1.1205496528347756
40
1.2898633097826271
40
1.2898633097826271
40
1.2898633097826271
40
1.3560890877980936
40
1.3560890877980936
40
1.3560890877980936
40
1.3560890877980936
10
-119.80665100270406
20
5.6684192128038546
30
0
10
-119.76719384731589
20
5.7941986440841386
30
0
10
-119.71460479386107
20
5.9212249831571029
30
0
10
-119.65216447917086
20
6.0400275370005874
30
0
10
-119.37320892562587
20
6.570784506026035
30
0
10
-118.89771122601275
20
6.9661916410886171
30
0
10
-118.32212666034231
20
7.1460342665251853
30
0
10
-117.74575251856484
20
7.3261235967007954
30
0
10
-117.12662167450127
20
7.271979819706087
30
0
10
-116.59091962830684
20
6.9946705809669529
30
0
10
-116.05638009637843
20
6.7179631244095939
30
0
10
-115.65815999810761
20
6.2467305031221709
30
0
10
-115.4768976696282
20
5.6763152806434114
30
0
10
-115.40599825758527
20
5.4532016075853873
30
0
10
-115.37198350745092
20
5.2207525933849652
30
0
10
-115.37198350745092
20
5.0000000000000755
30
0
0
SPLINE
5
106
100
AcDbEntity
8
0
100
AcDbSpline
70
0
71
3
72
20
73
16
74
0
42
0.000000001
43
0.0000000001
44
0.0000000001
40
0
40
0
40
0
40
0
40
0.15152805311865111
40
0.15152805311865111
40
0.15152805311865111
40
0.3090855045070604
40
0.3090855045070604
40
0.3090855045070604
40
0.44031254029751227
40
0.44031254029751227
40
0.44031254029751227
40
0.61151970948609968
40
0.61151970948609968
40
0.61151970948609968
40
0.74348945323625726
40
0.74348945323625726
40
0.74348945323625726
40
0.74348945323625726
10
-194.57723733707255
20
5.0000000000000711
30
0
10
-194.57723733707255
20
4.4949064896045643
30
0
10
-194.77914319252889
20
3.9374272782926578
30
0
10
-195.11721549634268
20
3.5429039361943904
30
0
10
-195.46873991362133
20
3.1326822576675273
30
0
10
-195.99408050639553
20
2.8445179810591759
30
0
10
-196.53869242438498
20
2.7707124956259888
30
0
10
-196.99229082309046
20
2.7092411085660606
30
0
10
-197.45784758651848
20
2.7843690118794218
30
0
10
-197.87456453202421
20
2.9946819421310744
30
0
10
-198.41824006476179
20
3.2690696185367196
30
0
10
-198.82432875812009
20
3.7440825550028789
30
0
10
-199.00844982261575
20
4.3206622361638836
30
0
10
-199.15037384259495
20
4.7651008255932226
30
0
10
-199.14919226384612
20
5.2307822227505207
30
0
10
-199.01190569901632
20
5.6684192128038369
30
0
0
SPLINE
5
107
100
AcDbEntity
8
0
100
AcDbSpline
70
0
71
3
72
20
73
16
74
0
42
0.000000001
43
0.0000000001
44
0.0000000001
40
0.74348945323625726
40
0.74348945323625726
40
0.74348945323625726
40
0.74348945323625726
40
0.78141836584552604
40
0.78141836584552604
40
0.78141836584552604
40
0.95086773835262894
40
0.95086773835262894
40
0.95086773835262894
40
1.1205500873311065
40
1.1205500873311065
40
1.1205500873311065
40
1.2898630653546683
40
1.2898630653546683
40
1.2898630653546683
40
1.3560891404629369
40
1.3560891404629369
40
1.3560891404629369
40
1.3560891404629369
10
-199.01190569901632
20
5.6684192128038369
30
0
10
-198.97244869946564
20
5.7941987640753734
30
0
10
-198.91985981617302
20
5.9212252778116437
30
0
10
-198.85741966617667
20
6.0400279924716038
30
0
10
-198.57846507696576
20
6.5707852450892545
30
0
10
-198.10296793026225
20
6.9661929858674654
30
0
10
-197.52738349040382
20
7.1460350824745555
30
0
10
-196.95100767770174
20
7.3261244445418372
30
0
10
-196.33187495019848
20
7.2719784708150081
30
0
10
-195.79617200064448
20
6.9946673703234685
30
0
10
-195.26163518953223
20
6.7179599311238336
30
0
10
-194.86341609364524
20
6.246730451932212
30
0
10
-194.68215293016013
20
5.6763180753888731
30
0
10
-194.6112525891499
20
5.4532036199430056
30
0
10
-194.57723733707255
20
5.2207535836942975
30
0
10
-194.57723733707255
20
5.0000000000000666
30
0
0
SPLINE
5
108
100
AcDbEntity
8
0
100
AcDbSpline
70
0
71
3
72
11
73
7
74
0
42
0.000000001
43
0.0000000001
44
0.0000000001
40
0
40
0
40
0
40
0
40
0.15152804382662746
40
0.15152804382662746
40
0.15152804382662746
40
0.18088131793948786
40
0.18088131793948786
40
0.18088131793948786
40
0.18088131793948786
10
-302.27492815249752
20
5.000000000000111
30
0
10
-302.27492815249752
20
4.4949065205780148
30
0
10
-302.47683387843699
20
3.9374272935488897
30
0
10
-302.81490608659112
20
3.542903918741116
30
0
10
-302.88039578701409
20
3.46647877345307
30
0
10
-302.94723359896159
20
3.3980546752673257
30
0
10
-303.0231943953782
20
3.330028505083038
30
0
0
SPLINE
5
109
100
AcDbEntity
8
0
100
AcDbSpline
70
0
71
3
72
29
73
25
74
0
42
0.000000001
43
0.0000000001
44
0.0000000001
40
0.18088131793948786
40
0.18088131793948786
40
0.18088131793948786
40
0.18088131793948786
40
0.30908546736644654
40
0.30908546736644654
40
0.30908546736644654
40
0.44031253925909164
40
0.44031253925909164
40
0.44031253925909164
40
0.61151966614170117
40
0.61151966614170117
40
0.61151966614170117
40
0.78141836143089427
40
0.78141836143089427
40
0.78141836143089427
40
0.95086773840624761
40
0.95086773840624761
40
0.95086773840624761
40
1.1205500429145168
40
1.1205500429145168
40
1.1205500429145168
40
1.2898630847729935
40
1.2898630847729935
40
1.2898630847729935
40
1.3560891310517835
40
1.3560891310517835
40
1.3560891310517835
40
1.3560891310517835
10
-303.0231943953782
20
3.330028505083038
30
0
10
-303.35496281265739
20
3.0329155747258207
30
0
10
-303.79323314692152
20
2.8307678635681954
30
0
10
-304.23638265911427
20
2.770712496841381
30
0
10
-304.68998118268502
20
2.7092410861091665
30
0
10
-305.1555380770929
20
2.7843690675979715
30
0
10
-305.57225513119988
20
2.9946820784551331
30
0
10
-306.11593052170923
20
3.2690697167340899
30
0
10
-306.52201921558469
20
3.744082390518737
30
0
10
-306.70614040809204
20
4.3206618670347829
30
0
10
-306.88885447468306
20
4.8928348984633763
30
0
10
-306.83480468866748
20
5.5078633527774468
30
0
10
-306.55511032515557
20
6.0400279515961808
30
0
10
-306.27615564831154
20
6.5707851746854029
30
0
10
-305.80065845512587
20
6.9661928583043986
30
0
10
-305.22507400791153
20
7.1460350051036725
30
0
10
-304.64869835409809
20
7.3261243654856445
30
0
10
-304.02956580410552
20
7.2719785972076423
30
0
10
-303.49386294193482
20
6.9946676699023103
30
0
10
-302.95932587639186
20
6.7179602266675742
30
0
10
-302.56110668942716
20
6.2467304488714959
30
0
10
-302.37984360768883
20
5.6763178037553885
30
0
10
-302.30894335624879
20
5.4532034245037142
30
0
10
-302.27492815249758
20
5.2207534875960837
30
0
10
-302.27492815249758
20
5.0000000000001155
30
0
0
SPLINE
5
110
100
AcDbEntity
8
0
100
AcDbSpline
70
0
71
3
72
11
73
7
74
0
42
0.000000001
43
0.0000000001
44
0.0000000001
40
0
40
0
40
0
40
0
40
0.15152801919716491
40
0.15152801919716491
40
0.15152801919716491
40
0.15498625497311688
40
0.15498625497311688
40
0.15498625497311688
40
0.15498625497311688
10
-409.98311098008855
20
5.0000000000000711
30
0
10
-409.98311098008855
20
4.494906602676183
30
0
10
-410.18501636340437
20
3.9374273343634192
30
0
10
-410.52308831868072
20
3.5429038733317242
30
0
10
-410.53080393812053
20
3.5338998940371935
30
0
10
-410.5385302166053
20
3.5250255793969609
30
0
10
-410.54639958762147
20
3.5161294717298297
30
0
0
SPLINE
5
111
100
AcDbEntity
8
0
100
AcDbSpline
70
0
71
3
72
29
73
25
74
0
42
0.000000001
43
0.0000000001
44
0.0000000001
40
0.15498625497311688
40
0.15498625497311688
40
0.15498625497311688
40
0.15498625497311688
40
0.30908536952602328
40
0.30908536952602328
40
0.30908536952602328
40
0.44031253745511467
40
0.44031253745511467
40
0.44031253745511467
40
0.61151955227835142
40
0.61151955227835142
40
0.61151955227835142
40
0.78141835182314989
40
0.78141835182314989
40
0.78141835182314989
40
0.95086774178512767
40
0.95086774178512767
40
0.95086774178512767
40
1.1205499286103993
40
1.1205499286103993
40
1.1205499286103993
40
1.2898631398768965
40
1.2898631398768965
40
1.2898631398768965
40
1.3560891105443096
40
1.3560891105443096
40
1.3560891105443096
40
1.3560891105443096
10
-410.54639958762147
20
3.5161294717298297
30
0
10
-410.89705905222854
20
3.1197185838412089
30
0
10
-411.4119060988055
20
2.8428980071145693
30
0
10
-411.94456395590123
20
2.7707125002048905
30
0
10
-412.39816281183664
20
2.7092410267005373
30
0
10
-412.86372005432179
20
2.784369214286655
30
0
10
-413.28043739882497
20
2.994682436967957
30
0
10
-413.8241124144742
20
3.2690699712061155
30
0
10
-414.23020111457504
20
3.7440819442855178
30
0
10
-414.41432265116021
20
4.3206608770174126
30
0
10
-414.59703729091052
20
4.8928340944238924
30
0
10
-414.5429875163793
20
5.5078630322698352
30
0
10
-414.26329276644003
20
6.0400278411639174
30
0
10
-413.98433785398771
20
6.5707849887596392
30
0
10
-413.50884053192937
20
6.966192520895258
30
0
10
-412.93325606071051
20
7.1460348004265306
30
0
10
-412.3568808267778
20
7.3261241550199907
30
0
10
-411.73774874744851
20
7.2719789330705442
30
0
10
-411.20204611472877
20
6.9946684672414428
30
0
10
-410.66750837257268
20
6.7179610157062841
30
0
10
-410.26928894072563
20
6.246730448639175
30
0
10
-410.08802607268785
20
5.6763170917619199
30
0
10
-410.01712605672355
20
5.4532029120810765
30
0
10
-409.98311098008855
20
5.2207532355581021
30
0
10
-409.98311098008855
20
5.0000000000000711
30
0
0
SPLINE
5
112
100
AcDbEntity
8
0
100
AcDbSpline
70
0
71
3
72
11
73
7
74
0
42
0.000000001
43
0.0000000001
44
0.0000000001
40
0
40
0
40
0
40
0
40
0.15152801267197588
40
0.15152801267197588
40
0.15152801267197588
40
0.15511368059410596
40
0.15511368059410596
40
0.15511368059410596
40
0.15511368059410596
10
-517.6953593928165
20
5.0000000000000622
30
0
10
-517.6953593928165
20
4.4949066244268021
30
0
10
-517.89726444433984
20
3.9374271888441204
30
0
10
-518.23533616481882
20
3.5429036237326583
30
0
10
-518.24333609105111
20
3.5335678549398164
30
0
10
-518.25134740924409
20
3.5243714960672801
30
0
10
-518.25951258331247
20
3.5151517384469777
30
0
0
SPLINE
5
113
100
AcDbEntity
8
0
100
AcDbSpline
70
0
71
3
72
29
73
25
74
0
42
0.000000001
43
0.0000000001
44
0.0000000001
40
0.15511368059410596
40
0.15511368059410596
40
0.15511368059410596
40
0.15511368059410596
40
0.30908521874126021
40
0.30908521874126021
40
0.30908521874126021
40
0.44031247809776464
40
0.44031247809776464
40
0.44031247809776464
40
0.61151940643839942
40
0.61151940643839942
40
0.61151940643839942
40
0.78141831083095525
40
0.78141831083095525
40
0.78141831083095525
40
0.95086774668205587
40
0.95086774668205587
40
0.95086774668205587
40
1.1205497593446909
40
1.1205497593446909
40
1.1205497593446909
40
1.289863206962595
40
1.289863206962595
40
1.289863206962595
40
1.3560890941741024
40
1.3560890941741024
40
1.3560890941741024
40
1.3560890941741024
10
-518.25951258331247
20
3.5151517384469777
30
0
10
-518.61013189269863
20
3.119247741487472
30
0
10
-519.12459329850196
20
2.8428383946695845
30
0
10
-519.65681017358725
20
2.7707125478325079
30
0
10
-520.11040934354537
20
2.7092409452032573
30
0
10
-520.57596691042181
20
2.7843692691724176
30
0
10
-520.9926845971238
20
2.994682597789784
30
0
10
-521.53635940581296
20
3.2690699404672197
30
0
10
-521.94244833018763
20
3.7440811494135495
30
0
10
-522.12657037165218
20
4.3206595667013969
30
0
10
-522.309285717477
20
4.8928329147255889
30
0
10
-522.25523603168585
20
5.5078623584849451
30
0
10
-521.9755409162625
20
6.0400274008507004
30
0
10
-521.69658573589663
20
6.5707845974963153
30
0
10
-521.2210881847908
20
6.9661920499688756
30
0
10
-520.64550359547718
20
7.146034532386536
30
0
10
-520.06912899097188
20
7.3261238565297448
30
0
10
-519.44999760861924
20
7.2719793877285976
30
0
10
-518.91429529347397
20
6.9946696234476669
30
0
10
-518.3797565733654
20
6.7179622016547391
30
0
10
-517.98153672217632
20
6.2467306129845657
30
0
10
-517.8002740669408
20
5.6763163031545449
30
0
10
-517.7293743225307
20
5.4532023433473853
30
0
10
-517.6953593928165
20
5.2207529573717659
30
0
10
-517.6953593928165
20
5.0000000000000711
30
0
0
SPLINE
5
114
100
AcDbEntity
8
0
100
AcDbSpline
70
0
71
3
72
11
73
7
74
0
42
0.000000001
43
0.0000000001
44
0.0000000001
40
0
40
0
40
0
40
0
40
0.15152797037760238
40
0.15152797037760238
40
0.15152797037760238
40
0.18170447132337028
40
0.18170447132337028
40
0.18170447132337028
40
0.18170447132337028
10
-625.40369407337994
20
5.0000000000000533
30
0
10
-625.40369407337994
20
4.494906765408051
30
0
10
-625.60559871752946
20
3.9374273755947886
30
0
10
-625.94367013048509
20
3.5429037247383022
30
0
10
-626.01099639564507
20
3.4643351060632765
30
0
10
-626.07985916236134
20
3.394093559604805
30
0
10
-626.1582348640685
20
3.3244279505989827
30
0
0
SPLINE
5
115
100
AcDbEntity
8
0
100
AcDbSpline
70
0
71
3
72
29
73
25
74
0
42
0.000000001
43
0.0000000001
44
0.0000000001
40
0.18170447132337028
40
0.18170447132337028
40
0.18170447132337028
40
0.18170447132337028
40
0.30908514527124131
40
0.30908514527124131
40
0.30908514527124131
40
0.4403125221730903
40
0.4403125221730903
40
0.4403125221730903
40
0.61151930093944917
40
0.61151930093944917
40
0.61151930093944917
40
0.7814183321458249
40
0.7814183321458249
40
0.7814183321458249
40
0.95086776558895847
40
0.95086776558895847
40
0.95086776558895847
40
1.1205496900369254
40
1.1205496900369254
40
1.1205496900369254
40
1.289863282295046
40
1.289863282295046
40
1.289863282295046
40
1.3560890882899193
40
1.3560890882899193
40
1.3560890882899193
40
1.3560890882899193
10
-626.1582348640685
20
3.3244279505989827
30
0
10
-626.48907341034453
20
3.030356340305187
30
0
10
-626.92484048587812
20
2.8303822143368151
30
0
10
-627.36514358039744
20
2.7707125203236282
30
0
10
-627.81874315986897
20
2.7092408921464139
30
0
10
-628.28430115623451
20
2.7843695030109616
30
0
10
-628.70101915791975
20
2.9946831479122693
30
0
10
-629.24469341558517
20
3.2690704177355201
30
0
10
-629.65078221250531
20
3.7440808296644956
30
0
10
-629.83490456380446
20
4.3206585821997523
30
0
10
-630.01762051310607
20
4.8928321975013578
30
0
10
-629.96357078890298
20
5.5078622153937662
30
0
10
-629.68387519030148
20
6.0400274991082359
30
0
10
-629.40491974021438
20
6.5707845327606895
30
0
10
-628.92942208046247
20
6.9661917571733589
30
0
10
-628.3538375067435
20
7.1460343420894334
30
0
10
-627.77746320931055
20
7.3261236778056116
30
0
10
-627.15833218401201
20
7.271979691768653
30
0
10
-626.62263005183138
20
6.9946702741620825
30
0
10
-626.08809077974968
20
6.7179628180513173
30
0
10
-625.6898707779975
20
6.2467304951247904
30
0
10
-625.50860837085884
20
5.6763155435903156
30
0
10
-625.43770887100629
20
5.4532017970028202
30
0
10
-625.40369407337994
20
5.2207526866496323
30
0
10
-625.40369407337994
20
5.0000000000000577
30
0
0
SPLINE
5
116
100
AcDbEntity
8
0
100
AcDbSpline
70
0
71
3
72
14
73
10
74
0
42
0.000000001
43
0.0000000001
44
0.0000000001
40
0
40
0
40
0
40
0
40
0.16597481585163551
40
0.16597481585163551
40
0.16597481585163551
40
0.34034534162795671
40
0.34034534162795671
40
0.34034534162795671
40
0.45551236303923326
40
0.45551236303923326
40
0.45551236303923326
40
0.45551236303923326
10
-733.10163064213782
20
5.0000000000000888
30
0
10
-733.10163064213782
20
4.4467506138279722
30
0
10
-733.3507383933611
20
3.8337568268212507
30
0
10
-733.74101493977832
20
3.4342798449065182
30
0
10
-734.15103332869899
20
3.0145956234504423
30
0
10
-734.79632005406074
20
2.7466105578526978
30
0
10
-735.38352801506198
20
2.7500389807576209
30
0
10
-735.77136300905772
20
2.7523033614626735
30
0
10
-736.19169686731175
20
2.8641535734408707
30
0
10
-736.54068763650116
20
3.0726571238456213
30
0
0
SPLINE
5
117
100
AcDbEntity
8
0
100
AcDbSpline
70
0
71
3
72
26
73
22
74
0
42
0.000000001
43
0.0000000001
44
0.0000000001
40
0.45551236303923326
40
0.45551236303923326
40
0.45551236303923326
40
0.45551236303923326
40
0.49862515631797699
40
0.49862515631797699
40
0.49862515631797699
40
0.68844614628963818
40
0.68844614628963818
40
0.68844614628963818
40
0.8380914717743444
40
0.8380914717743444
40
0.8380914717743444
40
1.0269540024226367
40
1.0269540024226367
40
1.0269540024226367
40
1.1745007585796272
40
1.1745007585796272
40
1.1745007585796272
40
1.3262796013471503
40
1.3262796013471503
40
1.3262796013471503
40
1.3560890877981211
40
1.3560890877981211
40
1.3560890877981211
40
1.3560890877981211
10
-736.54068763650116
20
3.0726571238456213
30
0
10
-736.6713323879577
20
3.150710462000359
30
0
10
-736.79307079417526
20
3.2415853975743092
30
0
10
-736.90153255915675
20
3.3400140735845474
30
0
10
-737.37907804014128
20
3.7733849433647482
30
0
10
-737.66642628623595
20
4.4630657953312181
30
0
10
-737.63625729688238
20
5.1047927893734446
30
0
10
-737.61247358238393
20
5.6106980894675385
30
0
10
-737.38576505164338
20
6.1497023928949135
30
0
10
-737.04075117766342
20
6.5221834754156749
30
0
10
-736.60532031380194
20
6.9922798157833244
30
0
10
-735.91313028972138
20
7.2760636364768017
30
0
10
-735.26978007907155
20
7.2477954548006895
30
0
10
-734.76716986661449
20
7.2257112515738786
30
0
10
-734.23087202959073
20
7.0089841312338264
30
0
10
-733.8552840256566
20
6.6747831296300264
30
0
10
-733.46892302335937
20
6.3309962338937309
30
0
10
-733.19370579453221
20
5.8236240798313244
30
0
10
-733.1223345637793
20
5.3032805612152067
30
0
10
-733.10831719681744
20
5.2010846768270502
30
0
10
-733.10163064213816
20
5.0993649548366493
30
0
10
-733.10163064213816
20
5.0000000000000799
30
0
0
SPLINE
5
118
100
AcDbEntity
8
0
100
AcDbSpline
70
0
71
3
72
20
73
16
74
0
42
0.000000001
43
0.0000000001
44
0.0000000001
40
0
40
0
40
0
40
0
40
0.1515279541800551
40
0.1515279541800551
40
0.1515279541800551
40
0.30908511726957888
40
0.30908511726957888
40
0.30908511726957888
40
0.44031253946962207
40
0.44031253946962207
40
0.44031253946962207
40
0.611519260883579
40
0.611519260883579
40
0.611519260883579
40
0.70126011690811418
40
0.70126011690811418
40
0.70126011690811418
40
0.70126011690811418
10
-810.87867245826885
20
5.0000000000000533
30
0
10
-810.87867245826885
20
4.4949068193998709
30
0
10
-811.0805769465353
20
3.9374274471368231
30
0
10
-811.41864824186712
20
3.5429037635960814
30
0
10
-811.77017119684081
20
3.1326822128157827
30
0
10
-812.29551055435593
20
2.8445179444271362
30
0
10
-812.84012147940166
20
2.7707125099089636
30
0
10
-813.2937212167559
20
2.7092408717666183
30
0
10
-813.759279378462
20
2.7843695922299005
30
0
10
-814.17599750218699
20
2.9946833578491638
30
0
10
-814.71967154927734
20
3.2690705985358592
30
0
10
-815.12576029923309
20
3.744080702936996
30
0
10
-815.30988277128245
20
4.3206581999532689
30
0
10
-815.40639363323089
20
4.6228809031240026
30
0
10
-815.43595965505892
20
4.9278013827594869
30
0
10
-815.4032945831915
20
5.2355512846594898
30
0
0
SPLINE
5
119
100
AcDbEntity
8
0
100
AcDbSpline
70
0
71
3
72
20
73
16
74
0
42
0.000000001
43
0.0000000001
44
0.0000000001
40
0.70126011690811418
40
0.70126011690811418
40
0.70126011690811418
40
0.70126011690811418
40
0.78141834126997478
40
0.78141834126997478
40
0.78141834126997478
40
0.95086777327656413
40
0.95086777327656413
40
0.95086777327656413
40
1.1205496528344934
40
1.1205496528344934
40
1.1205496528344934
40
1.2898633097823085
40
1.2898633097823085
40
1.2898633097823085
40
1.3560890877980929
40
1.3560890877980929
40
1.3560890877980929
40
1.3560890877980929
10
-815.4032945831915
20
5.2355512846594898
30
0
10
-815.37411752520995
20
5.5104392986215434
30
0
10
-815.29081363536329
20
5.7889524185928032
30
0
10
-815.15885342999013
20
6.0400275369982115
30
0
10
-814.87989787644574
20
6.5707845060239212
30
0
10
-814.40440017683329
20
6.966191641086974
30
0
10
-813.82881561116301
20
7.1460342665242615
30
0
10
-813.25244146938587
20
7.3261235967006222
30
0
10
-812.63331062532245
20
7.2719798197067576
30
0
10
-812.09760857912761
20
6.9946705809683074
30
0
10
-811.56306904719884
20
6.7179631244116855
30
0
10
-811.16484894892756
20
6.246730503124982
30
0
10
-810.98358662044711
20
5.6763152806465822
30
0
10
-810.91268720840367
20
5.4532016075875811
30
0
10
-810.87867245826885
20
5.2207525933859955
30
0
10
-810.87867245826885
20
5.0000000000000488
30
0
0
SPLINE
5
120
100
AcDbEntity
8
0
100
AcDbSpline
70
0
71
3
72
20
73
16
74
0
42
0.000000001
43
0.0000000001
44
0.0000000001
40
0
40
0
40
0
40
0
40
0.151527954183102
40
0.151527954183102
40
0.151527954183102
40
0.30908511726853594
40
0.30908511726853594
40
0.30908511726853594
40
0.44031253946811788
40
0.44031253946811788
40
0.44031253946811788
40
0.61151926088359765
40
0.61151926088359765
40
0.61151926088359765
40
0.71802898693926642
40
0.71802898693926642
40
0.71802898693926642
40
0.71802898693926642
10
-833.3143721018439
20
5.0000000000000355
30
0
10
-833.3143721018439
20
4.4949068193896968
30
0
10
-833.51627659011967
20
3.9374274471149029
30
0
10
-833.85434788546263
20
3.542903763572296
30
0
10
-834.20587084043177
20
3.1326822128089526
30
0
10
-834.73121019793416
20
2.8445179444293434
30
0
10
-835.27582112296591
20
2.7707125099104202
30
0
10
-835.72942086031867
20
2.7092408717660676
30
0
10
-836.19497902202261
20
2.7843695922262679
30
0
10
-836.61169714574748
20
2.9946833578419207
30
0
10
-837.15537119284477
20
3.2690705985273105
30
0
10
-837.56145994280644
20
3.7440807029320267
30
0
10
-837.74558241485749
20
4.3206581999534288
30
0
10
-837.86012718212305
20
4.6793538793630152
30
0
10
-837.88109736265767
20
5.0463095337714137
30
0
10
-837.81384789025788
20
5.4080109078492811
30
0
0
SPLINE
5
121
100
AcDbEntity
8
0
100
AcDbSpline
70
0
71
3
72
20
73
16
74
0
42
0.000000001
43
0.0000000001
44
0.0000000001
40
0.71802898693926642
40
0.71802898693926642
40
0.71802898693926642
40
0.71802898693926642
40
0.7814183412701633
40
0.7814183412701633
40
0.7814183412701633
40
0.95086777327684757
40
0.95086777327684757
40
0.95086777327684757
40
1.120549652834691
40
1.120549652834691
40
1.120549652834691
40
1.2898633097818981
40
1.2898633097818981
40
1.2898633097818981
40
1.3560890877980931
40
1.3560890877980931
40
1.3560890877980931
40
1.3560890877980931
10
-837.81384789025788
20
5.4080109078492811
30
0
10
-837.7738243093853
20
5.6232777892175889
30
0
10
-837.69890758344275
20
5.8414766113655014
30
0
10
-837.59455307356438
20
6.040027536999979
30
0
10
-837.31559752001942
20
6.5707845060256886
30
0
10
-836.84009982040607
20
6.9661916410885372
30
0
10
-836.26451525473522
20
7.1460342665251542
30
0
10
-835.68814111295808
20
7.3261235967006533
30
0
10
-835.069010268895
20
7.2719798197061181
30
0
10
-834.53330822270061
20
6.994670580967326
30
0
10
-833.99876869077411
20
6.7179631244112192
30
0
10
-833.60054859250454
20
6.2467305031267717
30
0
10
-833.41928626402364
20
5.6763152806507122
30
0
10
-833.34838685197928
20
5.453201607590441
30
0
10
-833.31437210184413
20
5.2207525933873544
30
0
10
-833.31437210184413
20
5.00000000000004
30
0
0
SPLINE
5
122
100
AcDbEntity
8
0
100
AcDbSpline
70
0
71
3
72
20
73
16
74
0
42
0.000000001
43
0.0000000001
44
0.0000000001
40
0
40
0
40
0
40
0
40
0.15152798008896681
40
0.15152798008896681
40
0.15152798008896681
40
0.30908521680391227
40
0.30908521680391227
40
0.30908521680391227
40
0.44031253749235189
40
0.44031253749235189
40
0.44031253749235189
40
0.61151937547151203
40
0.61151937547151203
40
0.61151937547151203
40
0.7437045038747494
40
0.7437045038747494
40
0.7437045038747494
40
0.7437045038747494
10
-918.5523333129081
20
5.0000000000000666
30
0
10
-918.5523333129081
20
4.4949067330368564
30
0
10
-918.75423815636486
20
3.937427401401794
30
0
10
-919.09230971345232
20
3.5429038057002282
30
0
10
-919.4438330447565
20
3.1326822247018749
30
0
10
-919.9691727178149
20
2.8445179533942655
30
0
10
-920.51378389585295
20
2.7707125058927229
30
0
10
-920.96738328107313
20
2.7092409332136347
30
0
10
-921.43294107621364
20
2.7843694431611654
30
0
10
-921.84965888705506
20
2.994682995132627
30
0
10
-922.39333331665932
20
3.2690703561509027
30
0
10
-922.79942204091662
20
3.7440812089074127
30
0
10
-922.98354413525794
20
4.3206592783935704
30
0
10
-923.12570085615585
20
4.7658228422390492
30
0
10
-923.12428515829822
20
5.2323525483480271
30
0
10
-922.9863173231447
20
5.670594620681455
30
0
0
SPLINE
5
123
100
AcDbEntity
8
0
100
AcDbSpline
70
0
71
3
72
20
73
16
74
0
42
0.000000001
43
0.0000000001
44
0.0000000001
40
0.7437045038747494
40
0.7437045038747494
40
0.7437045038747494
40
0.7437045038747494
40
0.78141834290407974
40
0.78141834290407974
40
0.78141834290407974
40
0.95086775679829705
40
0.95086775679829705
40
0.95086775679829705
40
1.1205497582779742
40
1.1205497582779742
40
1.1205497582779742
40
1.2898632377900574
40
1.2898632377900574
40
1.2898632377900574
40
1.3560890914127874
40
1.3560890914127874
40
1.3560890914127874
40
1.3560890914127874
10
-922.9863173231447
20
5.670594620681455
30
0
10
-922.94695361567597
20
5.795629798023354
30
0
10
-922.89460080256447
20
5.9218986862644574
30
0
10
-922.83251457378753
20
6.0400276604694758
30
0
10
-922.55355927918026
20
6.5707846970946182
30
0
10
-922.07806173659435
20
6.9661919899881575
30
0
10
-921.50247721398364
20
7.1460344782862606
30
0
10
-920.9261026395734
20
7.3261238197847112
30
0
10
-920.30697130424414
20
7.2719794661882098
30
0
10
-919.77126902752786
20
6.9946697366494837
30
0
10
-919.23673020984268
20
6.7179622791624283
30
0
10
-918.83851038075704
20
6.2467304718353311
30
0
10
-918.65724784141435
20
5.6763159908897665
30
0
10
-918.58634819165013
20
5.4532021193406877
30
0
10
-918.55233331290833
20
5.2207528454091667
30
0
10
-918.55233331290833
20
5.0000000000000666
30
0
0
SPLINE
5
124
100
AcDbEntity
8
0
100
AcDbSpline
70
0
71
3
72
14
73
10
74
0
42
0.000000001
43
0.0000000001
44
0.0000000001
40
1.9588858838523
40
1.9588858838523
40
1.9588858838523
40
1.9588858838523
40
2.4643448372990022
40
2.4643448372990022
40
2.4643448372990022
40
2.6495203540540855
40
2.6495203540540855
40
2.6495203540540855
40
2.8091044358111299
40
2.8091044358111299
40
2.8091044358111299
40
2.8091044358111299
10
-932.036909124673
20
41.828386432179123
30
0
10
-932.036909124673
20
43.513249610334768
30
0
10
-931.62690599395455
20
45.461211661351342
30
0
10
-930.80195575876496
20
46.979441369138854
30
0
10
-930.49973421326308
20
47.535646712372746
30
0
10
-930.14225513446286
20
48.055311374934071
30
0
10
-929.69361039728619
20
48.528831378472901
30
0
10
-929.30696879545872
20
48.936910460861981
30
0
10
-928.86219607631745
20
49.292853331400444
30
0
10
-928.37709114633617
20
49.550840050406215
30
0
0
LINE
5
125
100
AcDbEntity
8
0
100
AcDbLine
10
-932.036909124673
20
41.828386432179123
30
0
11
-932.036909124673
21
7.1054273576010019e-14
31
1.1518548798199978e-47
0
LINE
5
126
100
AcDbEntity
8
0
100
AcDbLine
10
-932.036909124673
20
7.1054273576010019e-14
30
1.1518548798199978e-47
11
-0.18504651223992141
21
0
31
0
0
LINE
5
127
100
AcDbEntity
8
0
100
AcDbLine
10
-0.18504651223992141
20
0
30
0
11
-0.18504651223992141
21
42.644931135985829
31
4.2194875758900216e-49
0
SPLINE
5
128
100
AcDbEntity
8
0
100
AcDbSpline
70
0
71
3
72
14
73
10
74
0
42
0.000000001
43
0.0000000001
44
0.0000000001
40
1.0742122358553305
40
1.0742122358553305
40
1.0742122358553305
40
1.0742122358553305
40
1.3643431324240884
40
1.3643431324240884
40
1.3643431324240884
40
1.5821193716384285
40
1.5821193716384285
40
1.5821193716384285
40
1.9196070699015206
40
1.9196070699015206
40
1.9196070699015206
40
1.9196070699015206
10
-3.8126352383263877
20
50.334822949015077
30
0
10
-2.9332518043581683
20
49.858705833363942
30
0
10
-2.1961759911748522
20
49.051999305444618
30
0
10
-1.6794556614136178
20
48.229440862939164
30
0
10
-1.2915982788603364
20
47.612017188792862
30
0
10
-0.97061199902516271
20
46.909707718108599
30
0
10
-0.72984751700484329
20
46.166585169675905
30
0
10
-0.35673495360636209
20
45.01496863289151
30
0
10
-0.18504651223999982
20
43.769890130196181
30
0
10
-0.18504651223999327
20
42.644931135985892
30
0
0
SPLINE
5
129
100
AcDbEntity
8
0
100
AcDbSpline
70
0
71
3
72
14
73
10
74
0
42
0.000000001
43
0.0000000001
44
0.0000000001
40
0.44869768877114519
40
0.44869768877114519
40
0.44869768877114519
40
0.44869768877114519
40
0.82396276398505552
40
0.82396276398505552
40
0.82396276398505552
40
1.2384381226920027
40
1.2384381226920027
40
1.2384381226920027
40
1.5854783961274093
40
1.5854783961274093
40
1.5854783961274093
40
1.5854783961274093
10
-3.8126352383264717
20
50.33482294901502
30
0
10
-25.252294526050619
20
61.942715872982888
30
0
10
-46.691953813774738
20
78.123016016783964
30
0
10
-68.131613101498885
20
97.760002467829992
30
0
10
-91.811435874158548
20
119.44879671168897
30
0
10
-115.49125864681821
20
145.34633040929594
30
0
10
-139.17108141947787
20
173.28401088522415
30
0
10
-158.99820020300047
20
196.676234494764
30
0
10
-178.82531898652306
20
221.47774743414345
30
0
10
-198.65243777004565
20
246.22154018574832
30
0
0
SPLINE
5
130
100
AcDbEntity
8
0
100
AcDbSpline
70
0
71
3
72
14
73
10
74
0
42
0.000000001
43
0.0000000001
44
0.0000000001
40
4.5267207933286278
40
4.5267207933286278
40
4.5267207933286278
40
4.5267207933286278
40
5.0305583238171625
40
5.0305583238171625
40
5.0305583238171625
40
5.3234829528214114
40
5.3234829528214114
40
5.3234829528214114
40
5.3926197663236053
40
5.3926197663236053
40
5.3926197663236053
40
5.3926197663236053
10
-206.55200126464391
20
250
30
0
10
-204.85875032668082
20
250
30
0
10
-203.02223988062786
20
249.53521908734501
30
0
10
-201.4762498532192
20
248.64350100864243
30
0
10
-200.57743123050989
20
248.1250676415865
30
0
10
-199.79105262930881
20
247.48958265312154
30
0
10
-199.11601112199213
20
246.75978802830093
30
0
10
-198.95668611420348
20
246.58754005091978
30
0
10
-198.80178497439005
20
246.40792209593286
30
0
10
-198.65243777004568
20
246.22154018574838
30
0
0
LINE
5
131
100
AcDbEntity
8
0
100
AcDbLine
10
-206.55200126464391
20
250
30
0
11
-724.17676628691515
21
250.00000000000006
31
0
0
SPLINE
5
132
100
AcDbEntity
8
0
100
AcDbSpline
70
0
71
3
72
14
73
10
74
0
42
0.000000001
43
0.0000000001
44
0.0000000001
40
6.6755444111565714
40
6.6755444111565714
40
6.6755444111565714
40
6.6755444111565714
40
6.9840919147767213
40
6.9840919147767213
40
6.9840919147767213
40
7.4889292072982423
40
7.4889292072982423
40
7.4889292072982423
40
7.541443384151548
40
7.541443384151548
40
7.541443384151548
40
7.541443384151548
10
-732.07632978151332
20
246.22154018574838
30
0
10
-731.40981501551778
20
247.05333543627091
30
0
10
-730.64393098286587
20
247.75222299425835
30
0
10
-729.7353944759393
20
248.34661225037635
30
0
10
-728.24887099112038
20
249.3191362839265
30
0
10
-726.43408987955672
20
249.89568183094372
30
0
10
-724.71065532849684
20
249.98601869915012
30
0
10
-724.53138024690111
20
249.99541571942507
30
0
10
-724.35325111353563
20
250.00000000000006
30
0
10
-724.17676628691515
20
250.00000000000006
30
0
0
SPLINE
5
133
100
AcDbEntity
8
0
100
AcDbSpline
70
0
71
3
72
14
73
10
74
0
42
0.000000001
43
0.0000000001
44
0.0000000001
40
-1.5854783961274093
40
-1.5854783961274093
40
-1.5854783961274093
40
-1.5854783961274093
40
-1.1013367066815898
40
-1.1013367066815898
40
-1.1013367066815898
40
-0.7224641360744537
40
-0.7224641360744537
40
-0.7224641360744537
40
-0.44017381534213557
40
-0.44017381534213557
40
-0.44017381534213557
40
-0.44017381534213557
10
-732.07632978151332
20
246.22154018574838
30
0
10
-759.73633214859944
20
211.70248708717793
30
0
10
-787.39633451568557
20
177.08965718376106
30
0
10
-815.05633688277157
20
146.3018024224636
30
0
10
-836.70209974160139
20
122.20829027265458
30
0
10
-858.34786260043131
20
100.46564486844017
30
0
10
-879.9936254592609
20
82.601495330184036
30
0
10
-896.12144735495258
20
69.291277346645927
30
0
10
-912.24926925064437
20
58.127878951533951
30
0
10
-928.37709114633583
20
49.550840050406123
30
0
0
ENDSEC
0
SECTION
2
OBJECTS
0
DICTIONARY
5
C
100
AcDbDictionary
3
ACAD_GROUP
350
D
3
ACAD_MLINESTYLE
350
17
0
DICTIONARY
5
D
100
AcDbDictionary
0
DICTIONARY
5
1A
330
C
100
AcDbDictionary
0
DICTIONARY
5
17
100
AcDbDictionary
0
ENDSEC
0
EOF
